<svg xmlns="http://www.w3.org/2000/svg" viewBox="0 0 512 512">
  <path fill="#a855f7" d="M448 80c-8.8 0-16 7.2-16 16V415.8l-5-6.5-136-176c-4.5-5.9-11.6-9.3-19-9.3s-14.4 3.4-19 9.3L202 405.1l-5 6.5V96c0-8.8-7.2-16-16-16H160c-8.8 0-16 7.2-16 16V416c0 17.7 14.3 32 32 32h32c8.8 0 16-7.2 16-16l24.4-31.6L304 432c4.5 5.9 11.6 9.3 19 9.3s14.4-3.4 19-9.3l56.4-73.1L422.8 400l10.8 14H448c17.7 0 32-14.3 32-32V96c0-8.8-7.2-16-16-16H448zM64 32C28.7 32 0 60.7 0 96V416c0 35.3 28.7 64 64 64H448c35.3 0 64-28.7 64-64V96c0-35.3-28.7-64-64-64H64zM96 96H120c13.3 0 24 10.7 24 24V416c0 13.3-10.7 24-24 24H96c-13.3 0-24-10.7-24-24V120c0-13.3 10.7-24 24-24z"/>
</svg>
